<svg xmlns="http://www.w3.org/2000/svg" viewBox="0 0 256 256" width="256" height="256" role="img" aria-hidden="true">

<style>
  .s { stroke: #0B5D2A; stroke-width: 10; stroke-linecap: round; stroke-linejoin: round; fill: none; }
  .s2 { stroke: #06411F; stroke-width: 8; stroke-linecap: round; stroke-linejoin: round; fill: none; }
  .f { fill: #0B5D2A; }
  .fd { fill: #06411F; }
  .soft { fill: #EAF6EE; }
  .mid { fill: #BFE6CB; }
  .ink { fill: #143322; }
  .amber { fill: #D97706; }
  .red { fill: #DC2626; }
  .gray { fill: #64748B; }
  text { font-family: Arial, Helvetica, sans-serif; font-weight: 800; }
</style>


    <path class="soft" d="M58 28h108l54 54v146H58z"/>
    <path class="s" d="M58 28h108l54 54v146H58z"/>
    <path class="s" d="M166 32v54h54"/>
    
  
    <g transform="translate(94 60) scale(0.42)">
      <path class="f" d="M34 76C17 62 7 39 13 12c26 5 48 22 56 45-16-4-28 1-35 19z"/>
      <path class="fd" d="M73 75c18-13 29-36 24-63-26 4-49 20-58 43 16-3 27 2 34 20z"/>
      <path class="s2" d="M54 103V50"/>
    </g>
    
  <path class="s2" d="M86 116h84M92 142h72M92 168h72"/>

    
</svg>
