<svg xmlns="http://www.w3.org/2000/svg" viewBox="0 0 520 128" role="img" aria-labelledby="title desc">
<title id="title">Oyama Donor CRM White Logo</title><desc id="desc">Oyama Donor CRM logo with emerald stewardship tree icon.</desc>
<defs><linearGradient id="bg" x1="18" y1="8" x2="112" y2="122" gradientUnits="userSpaceOnUse"><stop offset="0" stop-color="#0f6b46"/><stop offset=".55" stop-color="#064532"/><stop offset="1" stop-color="#03261f"/></linearGradient></defs>
<rect x="8" y="8" width="112" height="112" rx="28" fill="url(#bg)"/>
<path d="M64 25 C58 36 49 45 38 52 C47 53 54 51 60 47 C53 61 42 70 28 77 C42 78 53 75 61 68 C55 80 45 89 33 96 C45 95 55 91 61 84 L61 101 C54 102 47 104 41 108 H87 C81 104 74 102 67 101 L67 84 C73 91 83 95 95 96 C83 89 73 80 67 68 C75 75 86 78 100 77 C86 70 75 61 68 47 C74 51 81 53 90 52 C79 45 70 36 64 25Z" fill="#fff"/>
<path d="M50 109 C56 105 72 105 78 109" fill="none" stroke="#9de8c5" stroke-width="3" stroke-linecap="round" opacity=".72"/>
<g transform="translate(144 38)">
<text x="0" y="28" font-family="Inter, ui-sans-serif, system-ui, -apple-system, BlinkMacSystemFont, 'Segoe UI', sans-serif" font-size="38" font-weight="800" letter-spacing="7" fill="#ffffff">OYAMA</text>
<text x="2" y="62" font-family="Inter, ui-sans-serif, system-ui, -apple-system, BlinkMacSystemFont, 'Segoe UI', sans-serif" font-size="18" font-weight="700" letter-spacing="5" fill="#a7f3d0">DONOR CRM</text>
</g></svg>