<svg xmlns="http://www.w3.org/2000/svg" width="512" height="512" viewBox="0 0 512 512" role="img" aria-label="Approval">
<title>Approval</title>
<defs><filter id="softShadow" x="-20%" y="-20%" width="140%" height="140%"><feDropShadow dx="0" dy="8" stdDeviation="10" flood-color="#0f3d2e" flood-opacity="0.10"/></filter></defs>
<g filter="url(#softShadow)"><circle cx="256" cy="256" r="222" fill="#f0fdf4" stroke="#bbf7d0" stroke-width="4"/><path d="M 256 58 C 366 58 454 146 454 256 C 454 366 366 454 256 454 C 146 454 58 366 58 256 C 58 146 146 58 256 58 Z" fill="none" stroke="#dcfce7" stroke-width="2"/><rect x="132" y="134" width="248" height="270" rx="26" fill="white" stroke="#166534" stroke-width="16"/><rect x="202" y="96" width="108" height="70" rx="20" fill="#dcfce7" stroke="#166534" stroke-width="14"/><line x1="184" y1="228" x2="226" y2="228" stroke="#166534" stroke-width="14" stroke-linecap="round" stroke-linejoin="round" fill="none"/><line x1="184" y1="286" x2="226" y2="286" stroke="#166534" stroke-width="14" stroke-linecap="round" stroke-linejoin="round" fill="none"/><line x1="184" y1="344" x2="226" y2="344" stroke="#166534" stroke-width="14" stroke-linecap="round" stroke-linejoin="round" fill="none"/><path d="M 256 224 L 278 248 L 328 194" stroke="#166534" stroke-width="14" stroke-linecap="round" stroke-linejoin="round" fill="none"/><path d="M 256 282 L 278 306 L 328 252" stroke="#166534" stroke-width="14" stroke-linecap="round" stroke-linejoin="round" fill="none"/><circle cx="344" cy="344" r="56" fill="#dcfce7" stroke="#166534" stroke-width="12"/><path d="M 320 344 L 339 364 L 374 318" stroke="#166534" stroke-width="14" stroke-linecap="round" stroke-linejoin="round" fill="none"/></g>
</svg>