<svg xmlns="http://www.w3.org/2000/svg" width="512" height="512" viewBox="0 0 512 512" role="img" aria-label="Donor Level">
<title>Donor Level</title>
<defs><filter id="softShadow" x="-20%" y="-20%" width="140%" height="140%"><feDropShadow dx="0" dy="8" stdDeviation="10" flood-color="#0f3d2e" flood-opacity="0.10"/></filter></defs>
<g filter="url(#softShadow)"><circle cx="256" cy="256" r="222" fill="#f0fdf4" stroke="#bbf7d0" stroke-width="4"/><path d="M 256 58 C 366 58 454 146 454 256 C 454 366 366 454 256 454 C 146 454 58 366 58 256 C 58 146 146 58 256 58 Z" fill="none" stroke="#dcfce7" stroke-width="2"/><circle cx="256" cy="186" r="86" fill="#dcfce7" stroke="#166534" stroke-width="16"/><path d="M 206 254 L 178 406 L 256 360 L 334 406 L 306 254" fill="white" stroke="#166534" stroke-width="16" stroke-linejoin="round"/><polygon points="256.0,143.52 267.0033399229151,170.85520186530098 296.40088081221813,172.87295807895222 273.80377798504526,191.784798134699 280.96911751738423,220.36704192104776 256.0,204.72 231.03088248261574,220.36704192104776 238.19622201495474,191.78479813469903 215.59911918778187,172.87295807895225 244.9966600770849,170.85520186530098" fill="#dcfce7" stroke="#166534" stroke-width="16" stroke-linejoin="round"/><circle cx="256" cy="234.8" r="27.0" fill="white" stroke="#166534" stroke-width="16"/><path d="M 203.2 339.2 C 211.6 296.0 238.0 278.0 256 278.0 C 274.0 278.0 300.4 296.0 308.8 339.2" stroke="#166534" stroke-width="18" stroke-linecap="round" stroke-linejoin="round" fill="none"/></g>
</svg>