<svg xmlns="http://www.w3.org/2000/svg" width="512" height="512" viewBox="0 0 512 512" role="img" aria-label="Funder Profile">
<title>Funder Profile</title>
<defs><filter id="softShadow" x="-20%" y="-20%" width="140%" height="140%"><feDropShadow dx="0" dy="8" stdDeviation="10" flood-color="#0f3d2e" flood-opacity="0.10"/></filter></defs>
<g filter="url(#softShadow)"><circle cx="256" cy="256" r="222" fill="#f0fdf4" stroke="#bbf7d0" stroke-width="4"/><path d="M 256 58 C 366 58 454 146 454 256 C 454 366 366 454 256 454 C 146 454 58 366 58 256 C 58 146 146 58 256 58 Z" fill="none" stroke="#dcfce7" stroke-width="2"/><path d="M 256 332 C 206 288 178 218 218 164 C 270 212 284 280 256 332 Z" fill="#22c55e" stroke="#166534" stroke-width="10" stroke-linejoin="round"/><path d="M 256 332 C 304 286 334 222 299 166 C 246 213 231 283 256 332 Z" fill="#22c55e" stroke="#166534" stroke-width="10" stroke-linejoin="round"/><line x1="256" y1="348" x2="256" y2="244" stroke="#166534" stroke-width="12" stroke-linecap="round"/></g>
</svg>