<svg xmlns="http://www.w3.org/2000/svg" width="512" height="512" viewBox="0 0 512 512" role="img" aria-label="Integrations">
<title>Integrations</title>
<defs><filter id="softShadow" x="-20%" y="-20%" width="140%" height="140%"><feDropShadow dx="0" dy="8" stdDeviation="10" flood-color="#0f3d2e" flood-opacity="0.10"/></filter></defs>
<g filter="url(#softShadow)"><circle cx="256" cy="256" r="222" fill="#f0fdf4" stroke="#bbf7d0" stroke-width="4"/><path d="M 256 58 C 366 58 454 146 454 256 C 454 366 366 454 256 454 C 146 454 58 366 58 256 C 58 146 146 58 256 58 Z" fill="none" stroke="#dcfce7" stroke-width="2"/><circle cx="176" cy="256" r="62" fill="white" stroke="#166534" stroke-width="16"/><circle cx="336" cy="256" r="62" fill="white" stroke="#166534" stroke-width="16"/><line x1="238" y1="256" x2="274" y2="256" stroke="#166534" stroke-width="18" stroke-linecap="round" stroke-linejoin="round" fill="none"/><path d="M 176 194 V 156 C 176 124 206 104 238 112" stroke="#166534" stroke-width="14" stroke-linecap="round" stroke-linejoin="round" fill="none"/><path d="M 336 318 V 356 C 336 388 306 408 274 400" stroke="#166534" stroke-width="14" stroke-linecap="round" stroke-linejoin="round" fill="none"/></g>
</svg>