<svg xmlns="http://www.w3.org/2000/svg" width="512" height="512" viewBox="0 0 512 512" role="img" aria-label="Letterhead">
<title>Letterhead</title>
<defs><filter id="softShadow" x="-20%" y="-20%" width="140%" height="140%"><feDropShadow dx="0" dy="8" stdDeviation="10" flood-color="#0f3d2e" flood-opacity="0.10"/></filter></defs>
<g filter="url(#softShadow)"><circle cx="256" cy="256" r="222" fill="#f0fdf4" stroke="#bbf7d0" stroke-width="4"/><path d="M 256 58 C 366 58 454 146 454 256 C 454 366 366 454 256 454 C 146 454 58 366 58 256 C 58 146 146 58 256 58 Z" fill="none" stroke="#dcfce7" stroke-width="2"/><path d="M 156 96 H 300 L 356 152 V 376 H 156 Z" fill="white" stroke="#166534" stroke-width="16" stroke-linejoin="round"/><path d="M 300 96 V 152 H 356" fill="none" stroke="#166534" stroke-width="16" stroke-linejoin="round"/><line x1="196" y1="208" x2="316" y2="208" stroke="#166534" stroke-width="14" stroke-linecap="round" stroke-linejoin="round" fill="none"/><line x1="196" y1="252" x2="316" y2="252" stroke="#166534" stroke-width="14" stroke-linecap="round" stroke-linejoin="round" fill="none"/><line x1="196" y1="296" x2="284" y2="296" stroke="#166534" stroke-width="14" stroke-linecap="round" stroke-linejoin="round" fill="none"/><path d="M 256 194.32 C 240.0 180.24 231.04 157.84 243.84 140.56 C 260.48 155.92 264.96 177.68 256 194.32 Z" fill="#22c55e" stroke="#166534" stroke-width="10" stroke-linejoin="round"/><path d="M 256 194.32 C 271.36 179.6 280.96 159.12 269.76 141.2 C 252.8 156.24 248.0 178.64 256 194.32 Z" fill="#22c55e" stroke="#166534" stroke-width="10" stroke-linejoin="round"/><line x1="256" y1="199.44" x2="256" y2="166.16" stroke="#166534" stroke-width="12" stroke-linecap="round"/></g>
</svg>