<svg xmlns="http://www.w3.org/2000/svg" width="512" height="512" viewBox="0 0 512 512" role="img" aria-label="Print Queue">
<title>Print Queue</title>
<defs><filter id="softShadow" x="-20%" y="-20%" width="140%" height="140%"><feDropShadow dx="0" dy="8" stdDeviation="10" flood-color="#0f3d2e" flood-opacity="0.10"/></filter></defs>
<g filter="url(#softShadow)"><circle cx="256" cy="256" r="222" fill="#f0fdf4" stroke="#bbf7d0" stroke-width="4"/><path d="M 256 58 C 366 58 454 146 454 256 C 454 366 366 454 256 454 C 146 454 58 366 58 256 C 58 146 146 58 256 58 Z" fill="none" stroke="#dcfce7" stroke-width="2"/><rect x="138" y="110" width="236" height="112" rx="18" fill="white" stroke="#166534" stroke-width="14"/><rect x="106" y="208" width="300" height="154" rx="24" fill="#ecfdf5" stroke="#166534" stroke-width="16"/><rect x="154" y="302" width="204" height="100" rx="14" fill="white" stroke="#166534" stroke-width="14"/><circle cx="352" cy="258" r="11" fill="#22c55e"/><line x1="184" y1="338" x2="328" y2="338" stroke="#166534" stroke-width="14" stroke-linecap="round" stroke-linejoin="round" fill="none"/><line x1="184" y1="372" x2="300" y2="372" stroke="#166534" stroke-width="14" stroke-linecap="round" stroke-linejoin="round" fill="none"/></g>
</svg>