<svg xmlns="http://www.w3.org/2000/svg" width="512" height="512" viewBox="0 0 512 512" role="img" aria-label="Contacts Manager">
<title>Contacts Manager</title>
<defs><filter id="softShadow" x="-20%" y="-20%" width="140%" height="140%"><feDropShadow dx="0" dy="8" stdDeviation="10" flood-color="#0f3d2e" flood-opacity="0.10"/></filter></defs>
<g filter="url(#softShadow)"><circle cx="256" cy="256" r="222" fill="#f0fdf4" stroke="#bbf7d0" stroke-width="4"/><path d="M 256 58 C 366 58 454 146 454 256 C 454 366 366 454 256 454 C 146 454 58 366 58 256 C 58 146 146 58 256 58 Z" fill="none" stroke="#dcfce7" stroke-width="2"/><rect x="110" y="138" width="292" height="236" rx="22" fill="white" stroke="#166534" stroke-width="16"/><line x1="110" y1="204" x2="402" y2="204" stroke="#166534" stroke-width="14" stroke-linecap="round" stroke-linejoin="round" fill="none"/><line x1="110" y1="270" x2="402" y2="270" stroke="#166534" stroke-width="14" stroke-linecap="round" stroke-linejoin="round" fill="none"/><line x1="110" y1="336" x2="402" y2="336" stroke="#166534" stroke-width="14" stroke-linecap="round" stroke-linejoin="round" fill="none"/><line x1="208" y1="138" x2="208" y2="374" stroke="#166534" stroke-width="14" stroke-linecap="round" stroke-linejoin="round" fill="none"/><line x1="304" y1="138" x2="304" y2="374" stroke="#166534" stroke-width="14" stroke-linecap="round" stroke-linejoin="round" fill="none"/><circle cx="186" cy="196" r="36" fill="white" stroke="#166534" stroke-width="14"/><path d="M 116 334 C 124 286 158 258 186 258 C 216 258 246 286 256 344" stroke="#166534" stroke-width="14" stroke-linecap="round" stroke-linejoin="round" fill="none"/><circle cx="316" cy="196" r="36" fill="white" stroke="#166534" stroke-width="14"/><path d="M 256 344 C 266 286 296 258 316 258 C 350 258 386 286 400 344" stroke="#166534" stroke-width="14" stroke-linecap="round" stroke-linejoin="round" fill="none"/><circle cx="256" cy="181.60000000000002" r="42.75" fill="white" stroke="#166534" stroke-width="16"/><path d="M 172.4 346.9 C 185.7 278.5 227.5 250.0 256 250.0 C 284.5 250.0 326.3 278.5 339.6 346.9" stroke="#166534" stroke-width="18" stroke-linecap="round" stroke-linejoin="round" fill="none"/></g>
</svg>