<svg xmlns="http://www.w3.org/2000/svg" width="512" height="512" viewBox="0 0 512 512" role="img" aria-label="Duplicate Merge">
<title>Duplicate Merge</title>
<defs><filter id="softShadow" x="-20%" y="-20%" width="140%" height="140%"><feDropShadow dx="0" dy="8" stdDeviation="10" flood-color="#0f3d2e" flood-opacity="0.10"/></filter></defs>
<g filter="url(#softShadow)"><circle cx="256" cy="256" r="222" fill="#f0fdf4" stroke="#bbf7d0" stroke-width="4"/><path d="M 256 58 C 366 58 454 146 454 256 C 454 366 366 454 256 454 C 146 454 58 366 58 256 C 58 146 146 58 256 58 Z" fill="none" stroke="#dcfce7" stroke-width="2"/><rect x="148" y="126" width="190" height="250" rx="18" fill="#f8fafc" stroke="#86efac" stroke-width="12"/><path d="M 174 94 H 314 L 370 150 V 364 H 174 Z" fill="white" stroke="#166534" stroke-width="16" stroke-linejoin="round"/><path d="M 314 94 V 150 H 370" fill="none" stroke="#166534" stroke-width="16" stroke-linejoin="round"/><line x1="214" y1="206" x2="330" y2="206" stroke="#166534" stroke-width="14" stroke-linecap="round" stroke-linejoin="round" fill="none"/><line x1="214" y1="250" x2="330" y2="250" stroke="#166534" stroke-width="14" stroke-linecap="round" stroke-linejoin="round" fill="none"/><line x1="214" y1="294" x2="298" y2="294" stroke="#166534" stroke-width="14" stroke-linecap="round" stroke-linejoin="round" fill="none"/><path d="M 178 356 C 230 296 278 414 334 340" stroke="#166534" stroke-width="18" stroke-linecap="round" stroke-linejoin="round" fill="none"/></g>
</svg>