<svg xmlns="http://www.w3.org/2000/svg" width="512" height="512" viewBox="0 0 512 512" role="img" aria-label="Event Fundraising">
<title>Event Fundraising</title>
<defs><filter id="softShadow" x="-20%" y="-20%" width="140%" height="140%"><feDropShadow dx="0" dy="8" stdDeviation="10" flood-color="#0f3d2e" flood-opacity="0.10"/></filter></defs>
<g filter="url(#softShadow)"><circle cx="256" cy="256" r="222" fill="#f0fdf4" stroke="#bbf7d0" stroke-width="4"/><path d="M 256 58 C 366 58 454 146 454 256 C 454 366 366 454 256 454 C 146 454 58 366 58 256 C 58 146 146 58 256 58 Z" fill="none" stroke="#dcfce7" stroke-width="2"/><rect x="120" y="132" width="272" height="264" rx="26" fill="white" stroke="#166534" stroke-width="16"/><line x1="120" y1="206" x2="392" y2="206" stroke="#166534" stroke-width="18" stroke-linecap="round" stroke-linejoin="round" fill="none"/><line x1="184" y1="104" x2="184" y2="158" stroke="#166534" stroke-width="18" stroke-linecap="round" stroke-linejoin="round" fill="none"/><line x1="328" y1="104" x2="328" y2="158" stroke="#166534" stroke-width="18" stroke-linecap="round" stroke-linejoin="round" fill="none"/><circle cx="190" cy="260" r="14" fill="#22c55e"/><circle cx="256" cy="260" r="14" fill="#22c55e"/><circle cx="322" cy="260" r="14" fill="#22c55e"/><circle cx="190" cy="326" r="14" fill="#22c55e"/><circle cx="256" cy="326" r="14" fill="#22c55e"/><path d="M 148 190 C 148 154 364 154 364 190 C 364 226 148 226 148 190 Z" fill="#ecfdf5" stroke="#166534" stroke-width="16"/><path d="M 148 190 V 288 C 148 324 364 324 364 288 V 190" stroke="#166534" stroke-width="18" stroke-linecap="round" stroke-linejoin="round" fill="none"/><path d="M 148 238 C 148 274 364 274 364 238" stroke="#166534" stroke-width="18" stroke-linecap="round" stroke-linejoin="round" fill="none"/><path d="M 148 288 C 148 324 364 324 364 288" stroke="#166534" stroke-width="18" stroke-linecap="round" stroke-linejoin="round" fill="none"/><path d="M 275.5 213.29999999999998 C 232.6 204.2 215.7 239.3 252.1 246.45 C 302.8 256.2 284.6 277.65 232.6 266.59999999999997" stroke="#166534" stroke-width="18" stroke-linecap="round" stroke-linejoin="round" fill="none"/><line x1="256" y1="193.79999999999998" x2="256" y2="282.2" stroke="#166534" stroke-width="14" stroke-linecap="round" stroke-linejoin="round" fill="none"/></g>
</svg>