<svg xmlns="http://www.w3.org/2000/svg" width="512" height="512" viewBox="0 0 512 512" role="img" aria-label="Generosity Score">
<title>Generosity Score</title>
<defs><filter id="softShadow" x="-20%" y="-20%" width="140%" height="140%"><feDropShadow dx="0" dy="8" stdDeviation="10" flood-color="#0f3d2e" flood-opacity="0.10"/></filter></defs>
<g filter="url(#softShadow)"><circle cx="256" cy="256" r="222" fill="#f0fdf4" stroke="#bbf7d0" stroke-width="4"/><path d="M 256 58 C 366 58 454 146 454 256 C 454 366 366 454 256 454 C 146 454 58 366 58 256 C 58 146 146 58 256 58 Z" fill="none" stroke="#dcfce7" stroke-width="2"/><line x1="126" y1="374" x2="394" y2="374" stroke="#166534" stroke-width="18" stroke-linecap="round" stroke-linejoin="round" fill="none"/><line x1="126" y1="374" x2="126" y2="132" stroke="#166534" stroke-width="18" stroke-linecap="round" stroke-linejoin="round" fill="none"/><rect x="166" y="276" width="42" height="98" rx="10" fill="#bbf7d0" stroke="#166534" stroke-width="12"/><rect x="238" y="220" width="42" height="154" rx="10" fill="#86efac" stroke="#166534" stroke-width="12"/><rect x="310" y="170" width="42" height="204" rx="10" fill="#22c55e" stroke="#166534" stroke-width="12"/><polygon points="354.0,125.68 361.33555994861007,143.90346791020065 380.93392054147876,145.24863871930148 365.8691853233635,157.85653208979934 370.64607834492284,176.91136128069851 354.0,166.48 337.35392165507716,176.91136128069851 342.1308146766365,157.85653208979934 327.06607945852124,145.24863871930148 346.66444005138993,143.90346791020065" fill="#dcfce7" stroke="#166534" stroke-width="16" stroke-linejoin="round"/></g>
</svg>