<svg xmlns="http://www.w3.org/2000/svg" width="512" height="512" viewBox="0 0 512 512" role="img" aria-label="Grants">
<title>Grants</title>
<defs><filter id="softShadow" x="-20%" y="-20%" width="140%" height="140%"><feDropShadow dx="0" dy="8" stdDeviation="10" flood-color="#0f3d2e" flood-opacity="0.10"/></filter></defs>
<g filter="url(#softShadow)"><circle cx="256" cy="256" r="222" fill="#f0fdf4" stroke="#bbf7d0" stroke-width="4"/><path d="M 256 58 C 366 58 454 146 454 256 C 454 366 366 454 256 454 C 146 454 58 366 58 256 C 58 146 146 58 256 58 Z" fill="none" stroke="#dcfce7" stroke-width="2"/><rect x="136" y="152" width="240" height="238" rx="18" fill="white" stroke="#166534" stroke-width="16"/><path d="M 112 152 L 256 82 L 400 152" stroke="#166534" stroke-width="18" stroke-linecap="round" stroke-linejoin="round" fill="none"/><line x1="184" y1="204" x2="184" y2="350" stroke="#166534" stroke-width="14" stroke-linecap="round" stroke-linejoin="round" fill="none"/><line x1="256" y1="204" x2="256" y2="350" stroke="#166534" stroke-width="14" stroke-linecap="round" stroke-linejoin="round" fill="none"/><line x1="328" y1="204" x2="328" y2="350" stroke="#166534" stroke-width="14" stroke-linecap="round" stroke-linejoin="round" fill="none"/><line x1="112" y1="390" x2="400" y2="390" stroke="#166534" stroke-width="18" stroke-linecap="round" stroke-linejoin="round" fill="none"/><polygon points="350.0,122.96 358.5581532733784,144.22071256190077 381.42290729839186,145.79007850585174 363.8473828772574,160.49928743809923 369.4204247357433,182.72992149414827 350.0,170.56 330.5795752642567,182.72992149414827 336.1526171227426,160.49928743809923 318.57709270160814,145.79007850585174 341.4418467266216,144.22071256190077" fill="#dcfce7" stroke="#166534" stroke-width="16" stroke-linejoin="round"/></g>
</svg>