<svg xmlns="http://www.w3.org/2000/svg" width="512" height="512" viewBox="0 0 512 512" role="img" aria-label="Help">
<title>Help</title>
<defs><filter id="softShadow" x="-20%" y="-20%" width="140%" height="140%"><feDropShadow dx="0" dy="8" stdDeviation="10" flood-color="#0f3d2e" flood-opacity="0.10"/></filter></defs>
<g filter="url(#softShadow)"><circle cx="256" cy="256" r="222" fill="#f0fdf4" stroke="#bbf7d0" stroke-width="4"/><path d="M 256 58 C 366 58 454 146 454 256 C 454 366 366 454 256 454 C 146 454 58 366 58 256 C 58 146 146 58 256 58 Z" fill="none" stroke="#dcfce7" stroke-width="2"/><circle cx="256" cy="256" r="150" fill="white" stroke="#166534" stroke-width="18"/><path d="M 210 214 C 212 174 242 150 282 158 C 318 166 342 198 326 232 C 314 258 282 266 272 292" stroke="#166534" stroke-width="18" stroke-linecap="round" stroke-linejoin="round" fill="none"/><circle cx="270" cy="344" r="9" fill="#166534"/></g>
</svg>