<svg xmlns="http://www.w3.org/2000/svg" width="512" height="512" viewBox="0 0 512 512" role="img" aria-label="Major Donor">
<title>Major Donor</title>
<defs><filter id="softShadow" x="-20%" y="-20%" width="140%" height="140%"><feDropShadow dx="0" dy="8" stdDeviation="10" flood-color="#0f3d2e" flood-opacity="0.10"/></filter></defs>
<g filter="url(#softShadow)"><circle cx="256" cy="256" r="222" fill="#f0fdf4" stroke="#bbf7d0" stroke-width="4"/><path d="M 256 58 C 366 58 454 146 454 256 C 454 366 366 454 256 454 C 146 454 58 366 58 256 C 58 146 146 58 256 58 Z" fill="none" stroke="#dcfce7" stroke-width="2"/><circle cx="256" cy="178" r="45" fill="white" stroke="#166534" stroke-width="16"/><path d="M 168 352 C 182 280 226 250 256 250 C 286 250 330 280 344 352" stroke="#166534" stroke-width="18" stroke-linecap="round" stroke-linejoin="round" fill="none"/><polygon points="356.0,116.96 364.5581532733784,138.22071256190077 387.42290729839186,139.79007850585174 369.8473828772574,154.49928743809923 375.4204247357433,176.72992149414827 356.0,164.56 336.5795752642567,176.72992149414827 342.1526171227426,154.49928743809923 324.57709270160814,139.79007850585174 347.4418467266216,138.22071256190077" fill="#dcfce7" stroke="#166534" stroke-width="16" stroke-linejoin="round"/></g>
</svg>