<svg xmlns="http://www.w3.org/2000/svg" width="512" height="512" viewBox="0 0 512 512" role="img" aria-label="Notifications">
<title>Notifications</title>
<defs><filter id="softShadow" x="-20%" y="-20%" width="140%" height="140%"><feDropShadow dx="0" dy="8" stdDeviation="10" flood-color="#0f3d2e" flood-opacity="0.10"/></filter></defs>
<g filter="url(#softShadow)"><circle cx="256" cy="256" r="222" fill="#f0fdf4" stroke="#bbf7d0" stroke-width="4"/><path d="M 256 58 C 366 58 454 146 454 256 C 454 366 366 454 256 454 C 146 454 58 366 58 256 C 58 146 146 58 256 58 Z" fill="none" stroke="#dcfce7" stroke-width="2"/><path d="M 176 316 V 228 C 176 178 210 140 256 140 C 302 140 336 178 336 228 V 316 L 372 358 H 140 Z" fill="#ecfdf5" stroke="#166534" stroke-width="16" stroke-linejoin="round"/><path d="M 226 384 C 238 410 274 410 286 384" stroke="#166534" stroke-width="14" stroke-linecap="round" stroke-linejoin="round" fill="none"/><circle cx="340" cy="150" r="36" fill="#22c55e" stroke="#166534" stroke-width="10"/></g>
</svg>