<svg xmlns="http://www.w3.org/2000/svg" width="512" height="512" viewBox="0 0 512 512" role="img" aria-label="Opportunity Engine">
<title>Opportunity Engine</title>
<defs><filter id="softShadow" x="-20%" y="-20%" width="140%" height="140%"><feDropShadow dx="0" dy="8" stdDeviation="10" flood-color="#0f3d2e" flood-opacity="0.10"/></filter></defs>
<g filter="url(#softShadow)"><circle cx="256" cy="256" r="222" fill="#f0fdf4" stroke="#bbf7d0" stroke-width="4"/><path d="M 256 58 C 366 58 454 146 454 256 C 454 366 366 454 256 454 C 146 454 58 366 58 256 C 58 146 146 58 256 58 Z" fill="none" stroke="#dcfce7" stroke-width="2"/><circle cx="256" cy="256" r="144" fill="white" stroke="#166534" stroke-width="16"/><circle cx="256" cy="256" r="92" fill="none" stroke="#166534" stroke-width="14"/><circle cx="256" cy="256" r="34" fill="#22c55e" stroke="#166534" stroke-width="10"/><path d="M 330 182 L 410 102" stroke="#166534" stroke-width="14" stroke-linecap="round" stroke-linejoin="round" fill="none"/><path d="M 410 102 L 404 158" stroke="#166534" stroke-width="14" stroke-linecap="round" stroke-linejoin="round" fill="none"/><path d="M 410 102 L 354 108" stroke="#166534" stroke-width="14" stroke-linecap="round" stroke-linejoin="round" fill="none"/><polygon points="352.0,125.68 359.33555994861007,143.90346791020065 378.93392054147876,145.24863871930148 363.8691853233635,157.85653208979934 368.64607834492284,176.91136128069851 352.0,166.48 335.35392165507716,176.91136128069851 340.1308146766365,157.85653208979934 325.06607945852124,145.24863871930148 344.66444005138993,143.90346791020065" fill="#dcfce7" stroke="#166534" stroke-width="16" stroke-linejoin="round"/></g>
</svg>