<svg xmlns="http://www.w3.org/2000/svg" width="512" height="512" viewBox="0 0 512 512" role="img" aria-label="Pie Chart">
<title>Pie Chart</title>
<defs><filter id="softShadow" x="-20%" y="-20%" width="140%" height="140%"><feDropShadow dx="0" dy="8" stdDeviation="10" flood-color="#0f3d2e" flood-opacity="0.10"/></filter></defs>
<g filter="url(#softShadow)"><circle cx="256" cy="256" r="222" fill="#f0fdf4" stroke="#bbf7d0" stroke-width="4"/><path d="M 256 58 C 366 58 454 146 454 256 C 454 366 366 454 256 454 C 146 454 58 366 58 256 C 58 146 146 58 256 58 Z" fill="none" stroke="#dcfce7" stroke-width="2"/><path d="M 256 256 V 116 C 334 116 396 178 396 256 Z" fill="#86efac" stroke="#166534" stroke-width="14" stroke-linejoin="round"/><path d="M 256 256 L 396 256 C 396 334 334 396 256 396 C 178 396 116 334 116 256 C 116 186 168 128 238 118 Z" fill="white" stroke="#166534" stroke-width="14" stroke-linejoin="round"/></g>
</svg>