<svg xmlns="http://www.w3.org/2000/svg" width="512" height="512" viewBox="0 0 512 512" role="img" aria-label="Preview PDF">
<title>Preview PDF</title>
<defs><filter id="softShadow" x="-20%" y="-20%" width="140%" height="140%"><feDropShadow dx="0" dy="8" stdDeviation="10" flood-color="#0f3d2e" flood-opacity="0.10"/></filter></defs>
<g filter="url(#softShadow)"><circle cx="256" cy="256" r="222" fill="#f0fdf4" stroke="#bbf7d0" stroke-width="4"/><path d="M 256 58 C 366 58 454 146 454 256 C 454 366 366 454 256 454 C 146 454 58 366 58 256 C 58 146 146 58 256 58 Z" fill="none" stroke="#dcfce7" stroke-width="2"/><path d="M 86 256 C 130 174 188 142 256 142 C 324 142 382 174 426 256 C 382 338 324 370 256 370 C 188 370 130 338 86 256 Z" fill="white" stroke="#166534" stroke-width="16" stroke-linejoin="round"/><circle cx="256" cy="256" r="48" fill="#dcfce7" stroke="#166534" stroke-width="14"/></g>
</svg>