<svg xmlns="http://www.w3.org/2000/svg" width="512" height="512" viewBox="0 0 512 512" role="img" aria-label="Receipts">
<title>Receipts</title>
<defs><filter id="softShadow" x="-20%" y="-20%" width="140%" height="140%"><feDropShadow dx="0" dy="8" stdDeviation="10" flood-color="#0f3d2e" flood-opacity="0.10"/></filter></defs>
<g filter="url(#softShadow)"><circle cx="256" cy="256" r="222" fill="#f0fdf4" stroke="#bbf7d0" stroke-width="4"/><path d="M 256 58 C 366 58 454 146 454 256 C 454 366 366 454 256 454 C 146 454 58 366 58 256 C 58 146 146 58 256 58 Z" fill="none" stroke="#dcfce7" stroke-width="2"/><path d="M 146 104 H 366 V 404 L 328 380 L 292 404 L 256 380 L 220 404 L 184 380 L 146 404 Z" fill="white" stroke="#166534" stroke-width="16" stroke-linejoin="round"/><line x1="190" y1="176" x2="322" y2="176" stroke="#166534" stroke-width="14" stroke-linecap="round" stroke-linejoin="round" fill="none"/><line x1="190" y1="226" x2="322" y2="226" stroke="#166534" stroke-width="14" stroke-linecap="round" stroke-linejoin="round" fill="none"/><line x1="190" y1="276" x2="292" y2="276" stroke="#166534" stroke-width="14" stroke-linecap="round" stroke-linejoin="round" fill="none"/><path d="M 269.5 308.90000000000003 C 239.8 302.6 228.1 326.9 253.3 331.85 C 288.4 338.6 275.8 353.45 239.8 345.8" stroke="#166534" stroke-width="18" stroke-linecap="round" stroke-linejoin="round" fill="none"/><line x1="256" y1="295.40000000000003" x2="256" y2="356.59999999999997" stroke="#166534" stroke-width="14" stroke-linecap="round" stroke-linejoin="round" fill="none"/></g>
</svg>