<svg xmlns="http://www.w3.org/2000/svg" width="512" height="512" viewBox="0 0 512 512" role="img" aria-label="Settings">
<title>Settings</title>
<defs><filter id="softShadow" x="-20%" y="-20%" width="140%" height="140%"><feDropShadow dx="0" dy="8" stdDeviation="10" flood-color="#0f3d2e" flood-opacity="0.10"/></filter></defs>
<g filter="url(#softShadow)"><circle cx="256" cy="256" r="222" fill="#f0fdf4" stroke="#bbf7d0" stroke-width="4"/><path d="M 256 58 C 366 58 454 146 454 256 C 454 366 366 454 256 454 C 146 454 58 366 58 256 C 58 146 146 58 256 58 Z" fill="none" stroke="#dcfce7" stroke-width="2"/><polygon points="386.0,256.0 350.23571231615125,295.03371010123914 347.9238815542512,347.9238815542512 295.0337101012392,350.23571231615125 256.0,386.0 216.96628989876086,350.23571231615125 164.07611844574882,347.9238815542512 161.76428768384875,295.0337101012392 126.0,256.0 161.76428768384875,216.96628989876086 164.07611844574882,164.07611844574882 216.96628989876078,161.76428768384878 255.99999999999997,126.0 295.0337101012392,161.76428768384875 347.9238815542511,164.07611844574882 350.2357123161512,216.96628989876078" fill="#dcfce7" stroke="#166534" stroke-width="14" stroke-linejoin="round"/><circle cx="256" cy="256" r="50" fill="white" stroke="#166534" stroke-width="14"/></g>
</svg>