<svg xmlns="http://www.w3.org/2000/svg" width="512" height="512" viewBox="0 0 512 512" role="img" aria-label="Steward Paths">
<title>Steward Paths</title>
<defs><filter id="softShadow" x="-20%" y="-20%" width="140%" height="140%"><feDropShadow dx="0" dy="8" stdDeviation="10" flood-color="#0f3d2e" flood-opacity="0.10"/></filter></defs>
<g filter="url(#softShadow)"><circle cx="256" cy="256" r="222" fill="#f0fdf4" stroke="#bbf7d0" stroke-width="4"/><path d="M 256 58 C 366 58 454 146 454 256 C 454 366 366 454 256 454 C 146 454 58 366 58 256 C 58 146 146 58 256 58 Z" fill="none" stroke="#dcfce7" stroke-width="2"/><rect x="98" y="152" width="106" height="82" rx="20" fill="white" stroke="#166534" stroke-width="14"/><rect x="308" y="152" width="106" height="82" rx="20" fill="white" stroke="#166534" stroke-width="14"/><rect x="203" y="306" width="106" height="82" rx="20" fill="white" stroke="#166534" stroke-width="14"/><path d="M 204 193 H 308" stroke="#166534" stroke-width="18" stroke-linecap="round" stroke-linejoin="round" fill="none"/><path d="M 362 234 C 362 286 308 324 309 346" stroke="#166534" stroke-width="14" stroke-linecap="round" stroke-linejoin="round" fill="none"/><path d="M 150 234 C 150 286 204 324 203 346" stroke="#166534" stroke-width="14" stroke-linecap="round" stroke-linejoin="round" fill="none"/><circle cx="151" cy="193" r="14" fill="#22c55e"/><circle cx="361" cy="193" r="14" fill="#22c55e"/><circle cx="256" cy="347" r="14" fill="#22c55e"/></g>
</svg>