<svg xmlns="http://www.w3.org/2000/svg" width="512" height="512" viewBox="0 0 512 512" role="img" aria-label="Thank You">
<title>Thank You</title>
<defs><filter id="softShadow" x="-20%" y="-20%" width="140%" height="140%"><feDropShadow dx="0" dy="8" stdDeviation="10" flood-color="#0f3d2e" flood-opacity="0.10"/></filter></defs>
<g filter="url(#softShadow)"><circle cx="256" cy="256" r="222" fill="#f0fdf4" stroke="#bbf7d0" stroke-width="4"/><path d="M 256 58 C 366 58 454 146 454 256 C 454 366 366 454 256 454 C 146 454 58 366 58 256 C 58 146 146 58 256 58 Z" fill="none" stroke="#dcfce7" stroke-width="2"/><path d="M 124 312 C 166 294 194 298 230 320 L 286 320 C 314 320 314 362 286 362 L 224 362" stroke="#166534" stroke-width="18" stroke-linecap="round" stroke-linejoin="round" fill="none"/><path d="M 124 356 C 190 406 262 414 346 358 L 396 324" stroke="#166534" stroke-width="18" stroke-linecap="round" stroke-linejoin="round" fill="none"/><rect x="216" y="128" width="144" height="112" rx="16" fill="#ecfdf5" stroke="#166534" stroke-width="14"/><line x1="288" y1="128" x2="288" y2="240" stroke="#166534" stroke-width="14" stroke-linecap="round" stroke-linejoin="round" fill="none"/><line x1="216" y1="176" x2="360" y2="176" stroke="#166534" stroke-width="14" stroke-linecap="round" stroke-linejoin="round" fill="none"/><path d="M 288 128 C 260 86 208 106 232 142" stroke="#166534" stroke-width="14" stroke-linecap="round" stroke-linejoin="round" fill="none"/><path d="M 288 128 C 316 86 368 106 344 142" stroke="#166534" stroke-width="14" stroke-linecap="round" stroke-linejoin="round" fill="none"/><path d="M 350 174.08 C 318.64 155.04 313.6 127.03999999999999 332.64 123.12 C 343.84 120.88 350 129.84 350 129.84 C 350 129.84 356.16 120.88 367.36 123.12 C 386.4 127.03999999999999 381.36 155.04 350 174.08 Z" fill="#dcfce7" stroke="#166534" stroke-width="16" stroke-linejoin="round"/></g>
</svg>