<svg xmlns="http://www.w3.org/2000/svg" width="48" height="48" viewBox="0 0 48 48" role="img" aria-labelledby="title desc">
  <title id="title">Steward Paths Tile</title>
  <desc id="desc">Steward Paths tile icon for Oyama CRM</desc>
  
  <rect x="2" y="2" width="44" height="44" rx="14" fill="url(#bg)" stroke="#006B3F" stroke-opacity=".28" stroke-width="1.5"/>
  <defs>
    <linearGradient id="bg" x1="8" y1="6" x2="42" y2="44" gradientUnits="userSpaceOnUse">
      <stop stop-color="#006B3F" stop-opacity=".22"/>
      <stop offset="1" stop-color="#004225" stop-opacity=".08"/>
    </linearGradient>
  </defs>
  <g fill="none" stroke="#006B3F" stroke-width="2.5" stroke-linecap="round" stroke-linejoin="round">
<path d="M24 39V20"/><path d="M24 20c-6 0-10-3.8-10-9 6 0 10 3.8 10 9z"/><path d="M24 20c6 0 10-3.8 10-9-6 0-10 3.8-10 9z"/><circle cx="14" cy="36" r="4"/><circle cx="34" cy="36" r="4"/><path d="M24 28c-5 0-10 2-10 8M24 28c5 0 10 2 10 8"/>
  </g>
</svg>
