<svg xmlns="http://www.w3.org/2000/svg" viewBox="0 0 256 256" width="256" height="256" role="img" aria-hidden="true">

<style>
  .s { stroke: #0B5D2A; stroke-width: 10; stroke-linecap: round; stroke-linejoin: round; fill: none; }
  .s2 { stroke: #06411F; stroke-width: 8; stroke-linecap: round; stroke-linejoin: round; fill: none; }
  .f { fill: #0B5D2A; }
  .fd { fill: #06411F; }
  .soft { fill: #EAF6EE; }
  .mid { fill: #BFE6CB; }
  .ink { fill: #143322; }
  .amber { fill: #D97706; }
  .red { fill: #DC2626; }
  .gray { fill: #64748B; }
  text { font-family: Arial, Helvetica, sans-serif; font-weight: 800; }
</style>


  <circle class="soft" cx="128" cy="128" r="104"/>
  
    <g transform="translate(70 42) scale(0.92)">
      <path class="f" d="M34 76C17 62 7 39 13 12c26 5 48 22 56 45-16-4-28 1-35 19z"/>
      <path class="fd" d="M73 75c18-13 29-36 24-63-26 4-49 20-58 43 16-3 27 2 34 20z"/>
      <path class="s2" d="M54 103V50"/>
    </g>
    
  <path class="s" d="M70 168h116M82 192h92"/>
  <path class="s" d="M68 76c18 28 38 44 60 52 23-10 43-27 60-52"/>

</svg>
