<svg xmlns="http://www.w3.org/2000/svg" viewBox="0 0 256 256" width="256" height="256" role="img" aria-hidden="true">

<style>
  .s { stroke: #0B5D2A; stroke-width: 10; stroke-linecap: round; stroke-linejoin: round; fill: none; }
  .s2 { stroke: #06411F; stroke-width: 8; stroke-linecap: round; stroke-linejoin: round; fill: none; }
  .f { fill: #0B5D2A; }
  .fd { fill: #06411F; }
  .soft { fill: #EAF6EE; }
  .mid { fill: #BFE6CB; }
  .ink { fill: #143322; }
  .amber { fill: #D97706; }
  .red { fill: #DC2626; }
  .gray { fill: #64748B; }
  text { font-family: Arial, Helvetica, sans-serif; font-weight: 800; }
</style>


    <rect class="soft" x="36" y="44" width="82" height="160" rx="14"/>
    <rect class="soft" x="138" y="44" width="82" height="160" rx="14"/>
    <path class="s" d="M118 54v156M138 54v156"/>
    <path class="s" d="M46 44h48c14 0 24 10 24 24v136c0-14-10-24-24-24H46z"/>
    <path class="s" d="M210 44h-48c-14 0-24 10-24 24v136c0-14 10-24 24-24h48z"/>
    
  <path class="s2" d="M60 88h34M60 116h34M60 144h26"/>
  <path class="s2" d="M162 88h34M162 116h34M162 144h26"/>
  <circle class="mid" cx="128" cy="126" r="14"/>

    
</svg>
